<?xml version="1.0" encoding="UTF-8" standalone="no"?>
<!DOCTYPE svg PUBLIC "-//W3C//DTD SVG 1.1//EN" "http://www.w3.org/Graphics/SVG/1.1/DTD/svg11.dtd">
<svg width="100%" height="100%" viewBox="0 0 2200 2200" version="1.1" xmlns="http://www.w3.org/2000/svg" xmlns:xlink="http://www.w3.org/1999/xlink" xml:space="preserve" xmlns:serif="http://www.serif.com/" style="fill-rule:evenodd;clip-rule:evenodd;stroke-linejoin:round;stroke-miterlimit:2;">
    <g id="Type-001" serif:id="Type 001" transform="matrix(0.88,0,0,0.88,220,220)">
        <rect x="-250" y="-250" width="2500" height="2500" style="fill:white;"/>
        <g transform="matrix(1.136364,0,0,1.136364,-62.996337,-269.567521)">
            <path d="M918.907,226.589C927.263,220.278 950.209,214.545 970.318,218.894C1001.248,225.584 1037.387,211.771 1048.448,205.548C1038.326,220.619 1029.043,238.516 1009.176,239.765C978.435,241.696 961.59,266.949 948.013,291.202C938.514,302.583 887.706,265.574 842.57,324.11C825.913,345.711 796.34,355.842 773.127,358.446C803.915,359.19 860.303,364.65 883.125,393.45C915.271,434.015 898.433,499.838 870.114,517.442C841.795,535.046 778.268,558.773 778.268,558.773C778.268,558.773 843.325,509.788 842.56,466.927C841.795,424.065 811.179,417.942 789.749,434.781C783.318,439.833 781.533,439.583 770.576,452.383C770.701,464.181 758.119,487.626 790.749,499.774C803.573,504.548 801.062,514.925 803.577,516.471C771.716,521.499 724.676,528.856 723.854,541.682C723,555.022 720.063,569.519 707.775,577.64C703.586,531.648 691.005,550.514 687.953,548.057C670.346,569.79 626.925,595.749 585.961,603.192C566.035,606.813 551.105,592.73 523.661,623.23C498.092,619.387 480.239,597.144 475.116,585.123C467.597,567.478 455.86,545.242 466.361,490.525C476.82,526.655 483.424,552.288 505.714,554.915C506.721,541.637 506.214,523.936 517.724,518.8C519.674,536.877 529.756,549.458 540.015,551.763C550.411,554.1 534.84,533.447 546.321,512.781C556.395,508.243 565.977,539.005 578.64,544.812C581.055,540.401 585.058,543.817 580.303,532.166C577.184,524.523 574.263,507.165 580.207,500.904C583.917,496.997 600.888,519.649 611.589,523.931C615.39,522.96 606.944,490.005 611.565,487.431C615.907,485.012 630.159,507.742 633.381,502.078C644.663,482.247 652.585,457.911 649.683,442.434C643.204,407.879 650.808,397.954 630.306,396.47C618.839,395.64 612.053,400.257 599.549,385.644C589.172,381.897 578.667,417.066 575.433,418.275C566.427,421.644 567.67,381.814 571.492,380.284C568.334,377.095 565.962,376.882 561.769,377.7C551.35,384.801 544.314,405.75 541.587,404.991C538.83,404.224 533.142,378.527 535.052,370.472C532.814,368.629 528.318,368.197 525.955,370.84C518.993,378.627 514.937,401.601 518.037,402.634C513.541,405.762 498.44,376.126 496.854,352.104C492.265,349.105 487.336,349.499 482.83,352.119C482.83,372.784 480.538,386.734 480.538,386.734C480.538,386.734 459.471,358.895 455.458,335.822C446.931,329.552 435.895,329.05 435.895,329.05C435.895,329.05 435.052,388.228 461.381,424.966C422.806,405.372 418.404,384.999 409.58,357.122C398.796,323.051 398.795,270.896 398.795,270.896C362.815,234.631 301.712,303.38 304.238,287.116C304.238,287.116 334.477,224.051 422.511,208.005C433.442,187.474 448.104,168.821 466.394,164.6C448.27,207.216 463.945,226.32 477.661,222.402C491.376,218.483 533.013,197.419 568.772,202.318C552.117,219.952 549.668,250.323 563.873,243.955C578.079,237.587 593.754,218.973 593.754,218.973L587.876,254.242C614.028,264.642 633.624,227.085 654.977,215.162C671.056,227.39 681.161,229.09 691.113,229.065C723.688,228.984 751.528,229.882 773.571,183.837C795.614,137.791 819.983,129.626 819.983,129.626C819.983,129.626 800.389,192.693 813.247,197.592C826.106,202.49 890.451,133.927 955.11,130.498C975.015,129.442 1011.549,126.049 1038.463,118.326C1098.98,100.959 1152.244,72.046 1152.244,72.046C1152.244,72.046 1076.93,166.341 1023.047,174.914C973.938,182.727 926.864,220.039 918.907,226.589C918.475,226.916 918.082,227.244 917.73,227.572C917.73,227.572 918.134,227.226 918.907,226.589ZM748.788,477.698C746.55,477.912 751.026,467.751 748.058,452.968C739.344,439.223 743.76,432.705 705.518,433.897C714.891,443.267 727.704,442.29 732.524,462.92C739.164,491.342 720.448,504.871 719.786,504.984C703.399,507.786 694.361,506.569 691.103,508.165C675.056,516.025 662.872,523.009 656.805,529.197C649.78,536.361 621.178,564.881 619.425,566.229C616.544,568.447 611.982,572.454 597.423,579.548C610.628,578.586 620.448,575.474 629.573,569.108C642.593,560.025 663.65,536.082 669.174,529.643C676.91,520.627 695.117,513.109 700.377,514.305C704.57,515.258 710.187,516.275 717.398,517.474C728.55,513.692 737.025,512.135 747.09,492.065C747.275,491.696 748.508,483.071 748.788,477.698ZM442.688,245.173C440.392,243.882 428.573,262.297 432.891,281.095C436.986,293.741 456.641,307.76 461.629,303.628C461.685,283.46 455.115,264.003 442.688,245.173ZM598.829,303.886C598.829,303.886 674.722,320.173 682.298,312.075C689.874,303.976 722.269,273.41 742.385,269.23C697.973,263.221 689.136,268.478 672.632,271.646C649.58,276.072 643.502,276.741 627.305,282.553C616.253,286.52 598.829,303.886 598.829,303.886ZM402.855,513.547L384.362,560.072C418.989,534.546 431.965,524.317 455.043,501.418C442.368,521.33 428.982,550.684 428.982,550.684C428.982,550.684 386.016,575.661 367.585,602.278C367.585,602.278 360.72,633.66 345.23,651.545C335.155,663.178 316.208,676.664 308.059,711.582C304.71,725.932 305.579,723.505 305.23,736.693C305.034,744.126 308.376,747.359 313.767,752.091C316.354,733.129 313.461,720.081 318.134,703.825C324.633,681.22 345.59,654.593 370.515,651.623C379.754,628.88 380.53,626.24 381.389,597.822C391.578,589.286 420.231,574.086 436.312,560.159C450.192,542.564 456.06,521.134 456.06,521.134C456.06,521.134 459.824,550.003 452.932,570.852C435.323,578.165 411.329,601.907 407.447,611.489C405.953,615.176 417.606,631.078 429.719,636.804C443.934,643.523 460.506,639.799 482.848,638.992C442.792,677.869 398.515,659.545 398.795,664.994C400.04,689.203 415.17,720.93 415.524,743.698C416.039,776.958 404.209,827.056 404.209,827.056C392.118,832.359 395.545,799.869 386.27,769.706C377.038,739.685 338.33,735.072 338.33,735.072C338.33,735.072 342.216,743.929 363.913,775.585C385.609,807.241 404.785,858.219 384.879,910.517C369.7,950.398 353.034,961.685 353.034,961.685C353.034,961.685 357.347,936.136 359.448,909.613C360.569,895.463 367.374,865.893 350.459,849.526C333.192,832.818 319.465,823.719 308.378,823.27C317.642,839.36 334.52,875.645 336.201,891.516C339.704,924.595 332.424,975.555 332.424,975.555C320.859,981.923 321.352,949.256 309.403,920.049C297.51,890.979 258.544,889.864 258.544,889.864C258.544,889.864 263.211,898.336 287.665,927.914C312.119,957.491 354.911,1034.034 363.524,1075.828C372.138,1117.622 358.779,1147.327 358.779,1147.327C358.779,1147.327 348.476,1132.187 348.184,1105.583C347.874,1077.343 323.794,1022.776 280.912,1002.764C273.657,999.379 265.856,997.54 257.981,996.78C273.548,1008.148 287.918,1023.185 296.009,1037.734C312.176,1066.805 325.416,1116.55 325.416,1116.55C317.264,1126.935 304.936,1096.68 282.512,1074.476C260.193,1052.378 223.897,1066.598 223.897,1066.598C223.897,1066.598 231.507,1072.569 265.584,1090.22C299.661,1107.871 340.645,1143.743 347.807,1199.241C353.268,1241.563 343.911,1259.384 343.911,1259.384C343.911,1259.384 335.643,1234.828 324.965,1210.459C319.268,1197.458 311.297,1168.18 288.656,1161.745C265.545,1155.177 249.147,1153.641 239.163,1158.484C254.93,1168.288 286.947,1192.296 295.926,1205.491C314.641,1232.991 332.298,1281.344 332.298,1281.344C325.113,1292.421 310.116,1263.396 285.786,1243.298C261.571,1223.295 226.7,1240.72 226.7,1240.72C226.7,1240.72 234.816,1245.983 270.342,1260.499C305.868,1275.016 379.744,1322.264 407.079,1355.032C434.415,1387.799 436.673,1420.29 436.673,1420.29C436.673,1420.29 420.44,1411.814 407.615,1388.504C394.001,1363.76 346.999,1327.042 299.75,1329.661C291.756,1330.105 284.012,1332.169 276.713,1335.22C295.803,1337.885 315.572,1344.35 329.576,1353.351C357.559,1371.336 392.728,1408.925 392.728,1408.925C390.45,1421.93 365.291,1401.087 335.038,1392.111C304.927,1383.178 279.654,1412.857 279.654,1412.857C279.654,1412.857 289.182,1414.525 327.555,1413.984C365.929,1413.443 418.998,1425.699 451.527,1471.231C476.333,1505.952 476.506,1526.08 476.506,1526.08C476.506,1526.08 457.618,1508.342 436.695,1491.908C425.532,1483.14 404.675,1461.102 381.68,1466.126C358.207,1471.254 343.029,1477.647 336.517,1486.632C355.045,1487.825 394.606,1493.86 408.753,1501.247C438.239,1516.645 476.645,1550.921 476.645,1550.921C475.544,1564.078 448.614,1545.581 417.676,1539.36C386.884,1533.169 364.381,1565.001 364.381,1565.001C364.381,1565.001 374.021,1565.805 412.19,1561.817C450.36,1557.829 537.793,1564.573 577.365,1580.54C616.938,1596.507 634.278,1624.077 634.278,1624.077C634.278,1624.077 615.966,1624.276 593.65,1609.789C569.962,1594.412 511.189,1584.253 470.783,1608.883C463.947,1613.049 458.096,1618.528 453.104,1624.665C471.189,1617.995 491.667,1614.354 508.262,1615.672C541.422,1618.304 590.176,1634.821 590.176,1634.821C594.312,1647.359 562.292,1640.874 531.386,1647.255C500.627,1653.605 492.372,1691.704 492.372,1691.704C492.372,1691.704 501.558,1688.672 535.124,1670.068C568.69,1651.463 621.254,1637.195 671.434,1661.958C709.701,1680.842 719.361,1698.501 719.361,1698.501C719.361,1698.501 694.335,1691.79 668.129,1687.19C654.149,1684.736 625.355,1675.164 607.461,1690.455C589.195,1706.064 578.838,1718.869 577.343,1729.864C594.237,1722.163 631.955,1708.793 647.914,1708.621C681.176,1708.263 731.219,1720.33 731.219,1720.33C736.464,1732.446 703.991,1728.865 673.784,1737.998C643.72,1747.087 638.923,1785.774 638.923,1785.774C638.923,1785.774 647.799,1781.929 679.557,1760.382C711.315,1738.836 791.563,1703.476 833.984,1698.854C876.406,1694.233 904.713,1710.341 904.713,1710.341C904.713,1710.341 888.667,1719.167 862.154,1716.941C834.012,1714.578 777.412,1733.389 753.434,1774.185C749.377,1781.087 746.808,1788.68 745.307,1796.447C758.096,1782.025 774.425,1769.142 789.674,1762.464C820.144,1749.119 870.918,1740.644 870.918,1740.644C880.486,1749.741 849.201,1759.152 824.976,1779.376C800.865,1799.505 811.588,1836.983 811.588,1836.983C811.588,1836.983 818.252,1829.972 839.047,1797.717C859.843,1765.462 899.431,1728.055 955.357,1726.176C998.005,1724.742 1014.862,1735.743 1014.862,1735.743C1014.862,1735.743 989.634,1741.65 964.364,1749.976C950.882,1754.417 920.982,1759.583 912.434,1781.514C903.709,1803.9 900.629,1820.079 904.506,1830.476C915.758,1815.708 942.686,1786.105 956.671,1778.414C985.818,1762.385 1035.625,1749.381 1035.625,1749.381C1045.972,1757.581 1015.659,1769.766 993.35,1792.085C971.146,1814.3 985.194,1850.662 985.194,1850.662C985.194,1850.662 991.201,1843.081 1009.013,1809.087C1026.825,1775.094 1080.85,1706.019 1116.056,1681.905C1151.262,1657.792 1183.821,1658.617 1183.821,1658.617C1183.821,1658.617 1173.848,1673.976 1149.428,1684.538C1123.508,1695.751 1082.508,1739.068 1080.647,1786.353C1080.332,1794.353 1081.655,1802.258 1084.001,1809.813C1088.46,1791.06 1096.766,1771.991 1107.051,1758.902C1127.603,1732.746 1168.35,1701.29 1168.35,1701.29C1181.081,1704.788 1157.952,1727.862 1146.155,1757.131C1134.413,1786.262 1161.569,1814.229 1161.569,1814.229C1161.569,1814.229 1164.13,1804.902 1167.222,1766.649C1170.313,1728.396 1187.534,1676.725 1235.938,1648.648C1272.85,1627.237 1292.904,1628.97 1292.904,1628.97C1292.904,1628.97 1273.459,1646.095 1255.12,1665.37C1245.336,1675.653 1221.423,1694.332 1224.249,1717.699C1227.134,1741.552 1232.063,1757.266 1240.391,1764.599C1243.332,1746.267 1253.082,1707.455 1261.774,1694.07C1279.892,1666.172 1317.647,1631.181 1317.647,1631.181C1330.641,1633.521 1309.679,1658.58 1300.56,1688.792C1291.484,1718.86 1321.044,1744.273 1321.044,1744.273C1321.044,1744.273 1322.757,1734.753 1322.398,1696.377C1322.038,1658.002 1337.022,1571.598 1356.661,1533.714C1376.299,1495.829 1405.386,1481.175 1405.386,1481.175C1405.386,1481.175 1403.852,1499.423 1387.319,1520.269C1369.77,1542.396 1354.097,1599.944 1374.794,1642.5C1378.296,1649.699 1383.196,1656.042 1388.833,1661.592C1383.905,1642.957 1382.217,1622.226 1385.098,1605.831C1390.856,1573.069 1411.91,1526.095 1411.91,1526.095C1424.783,1523.164 1415.298,1554.427 1418.727,1585.797C1422.14,1617.02 1459.286,1628.841 1459.286,1628.841C1459.286,1628.841 1457.137,1619.41 1441.791,1584.234C1426.445,1549.059 1417.213,1495.381 1446.612,1447.768C1469.031,1411.46 1487.524,1403.513 1487.524,1403.513C1487.524,1403.513 1478.476,1427.792 1471.418,1453.445C1467.652,1467.131 1455.4,1494.89 1468.93,1514.15C1482.741,1533.811 1494.508,1545.333 1505.313,1547.861C1499.244,1530.315 1489.502,1491.5 1490.841,1475.597C1493.63,1442.45 1510.377,1393.773 1510.377,1393.773C1522.935,1389.697 1516.298,1421.686 1522.533,1452.622C1528.738,1483.411 1566.797,1491.845 1566.797,1491.845C1566.797,1491.845 1563.809,1482.645 1545.363,1448.992C1526.917,1415.338 1499.307,1332.105 1498.719,1289.437C1498.131,1246.769 1516.844,1220.112 1516.844,1220.112C1516.844,1220.112 1524.112,1236.921 1519.388,1263.104C1514.374,1290.897 1527.747,1349.022 1566.092,1376.752C1572.58,1381.444 1579.895,1384.719 1587.486,1386.948C1574.338,1372.852 1563.057,1355.377 1557.851,1339.565C1547.449,1307.97 1543.814,1256.621 1543.814,1256.621C1553.776,1247.957 1560.185,1279.992 1578.027,1306.022C1595.785,1331.929 1634.109,1324.799 1634.109,1324.799C1634.109,1324.799 1627.76,1317.501 1597.617,1293.748C1567.474,1269.995 1533.979,1227.046 1537.398,1171.192C1540.005,1128.6 1552.551,1112.859 1552.551,1112.859C1552.551,1112.859 1556.046,1138.533 1561.943,1164.477C1565.09,1178.319 1567.404,1208.573 1588.428,1219.157C1609.889,1229.961 1625.704,1234.557 1636.421,1231.682C1622.783,1219.083 1595.86,1189.475 1589.527,1174.826C1576.327,1144.293 1568.092,1093.479 1568.092,1093.479C1577.234,1083.955 1586.497,1115.284 1606.606,1139.605C1626.62,1163.81 1664.149,1153.265 1664.149,1153.265C1664.149,1153.265 1657.17,1146.568 1625.013,1125.62C1592.857,1104.672 1529.202,1044.356 1508.527,1007.027C1487.852,969.698 1491.753,937.362 1491.753,937.362C1491.753,937.362 1506.1,948.744 1514.305,974.053C1523.015,1000.918 1562.26,1045.831 1609.157,1052.157C1617.091,1053.227 1625.086,1052.658 1632.829,1051.037C1614.582,1044.824 1596.385,1034.752 1584.326,1023.274C1560.232,1000.341 1532.771,956.8 1532.771,956.8C1537.458,944.458 1558.241,969.666 1586.263,984.179C1614.152,998.624 1644.563,974.235 1644.563,974.235C1644.563,974.235 1635.519,970.802 1597.731,964.107C1559.942,957.411 1510.131,935.38 1486.759,884.536C1468.936,845.764 1472.557,825.964 1472.557,825.964C1472.557,825.964 1487.766,846.942 1505.22,867.022C1514.532,877.735 1530.865,903.308 1554.394,902.705C1578.413,902.089 1594.524,898.669 1602.611,891.071C1584.639,886.41 1546.923,873.032 1534.42,863.113C1508.362,842.437 1477.099,801.542 1477.099,801.542C1480.658,788.828 1503.622,812.065 1532.835,824.001C1561.91,835.881 1590.005,808.857 1590.005,808.857C1590.005,808.857 1580.69,806.251 1542.452,802.979C1504.215,799.707 1419.616,776.617 1383.759,753.483C1347.902,730.349 1336.065,700.006 1336.065,700.006C1336.065,700.006 1354.086,703.26 1373.275,721.691C1393.643,741.254 1449.45,762.3 1493.772,745.721C1501.271,742.916 1508.048,738.638 1514.107,733.551C1495.09,736.695 1474.292,736.414 1458.243,731.995C1426.172,723.164 1381.4,697.761 1381.4,697.761C1379.7,684.668 1409.926,697.068 1441.48,696.622C1472.885,696.178 1488.167,660.316 1488.167,660.316C1488.167,660.316 1478.575,661.563 1442.105,673.513C1405.636,685.463 1351.326,689.577 1306.707,655.806C1272.682,630.053 1266.521,610.89 1266.521,610.89C1266.521,610.89 1289.835,622.195 1314.705,631.648C1327.973,636.691 1354.449,651.515 1374.903,639.867C1395.782,627.978 1408.365,617.353 1411.904,606.836C1393.862,611.217 1354.301,617.244 1338.595,614.407C1305.86,608.495 1258.986,587.219 1258.986,587.219C1256.116,574.332 1287.334,583.965 1318.721,580.684C1349.959,577.419 1361.955,540.329 1361.955,540.329C1361.955,540.329 1352.514,542.433 1317.266,557.613C1282.019,572.793 1196.547,592.406 1154.015,588.956C1111.482,585.505 1086.715,564.354 1086.715,564.354C1086.715,564.354 1104.136,558.708 1129.755,565.888C1156.949,573.509 1216.079,565.694 1247.312,530.143C1257.316,518.757 1262.547,503.936 1265.149,489.649C1249.207,506.705 1225.414,522.277 1204.829,527.986C1172.775,536.877 1121.312,538.069 1121.312,538.069C1113.13,527.707 1145.434,522.826 1172.281,506.241C1199.002,489.733 1193.7,451.113 1193.7,451.113C1193.7,451.113 1186.109,457.109 1160.952,486.09C1135.794,515.071 1091.303,546.489 1035.675,540.422C993.254,535.795 978.127,522.516 978.127,522.516C978.127,522.516 1003.938,520.244 1030.133,515.585C1044.108,513.1 1074.438,512.224 1086.009,491.727C1097.819,470.803 1103.161,455.224 1100.798,444.383C1087.566,457.407 1056.713,482.893 1041.779,488.524C1010.654,500.26 959.507,506.072 959.507,506.072C950.427,496.488 982.161,488.723 1007.409,469.792C1032.538,450.949 1023.786,412.962 1023.786,412.962C1023.786,412.962 1016.765,419.616 994.314,450.741C971.863,481.866 908.592,542.586 870.323,561.465C832.055,580.344 751.435,580.344 751.435,580.344C751.435,580.344 811.991,561.122 837.661,554.128C864.909,546.703 911.635,509.635 920.181,463.091C927.757,421.829 886.121,377.994 886.121,377.994C923.014,376.452 957.578,382.248 980.537,398.821C980.537,398.821 1016.99,390.583 1026.962,386.282C1032.736,383.791 1040.368,373.011 1040.368,373.011L1036.276,372.54C1027.931,371.574 1000.906,376.199 977.978,391.673C983.489,379.632 989.287,371.042 1006.019,363.582C1021.142,356.839 1038.837,359.576 1050.267,361.085C1060.598,362.448 1068.436,364.642 1076.737,367.1C1063.508,361.306 1052.486,354.967 1040.502,351.096L1040.754,350.896C1031.741,349.914 1019.957,349.796 1007.211,352.722C986.05,366.046 935.916,368.294 902.19,368.136C879.529,368.03 846.347,365.508 837.661,357.163C844.665,357.364 859.392,351.353 875.281,343.84C895.658,341.75 897.748,348.542 937.458,347.638C903.757,345.167 884.163,332.084 862.219,327.12C870.84,318.76 910.027,298.644 910.027,298.644C904.6,308.141 967.357,325.581 1021.608,334.285C1067.88,341.708 1121.707,330.636 1122.447,329.71C1122.447,329.71 1141.674,352.593 1160.127,364.194C1174.654,368.947 1189.93,373.099 1204.345,375.897C1255.073,385.743 1299.088,386.972 1299.088,386.972C1299.088,386.972 1308.819,395.12 1320.966,404.75C1329.462,410.254 1341.321,418.678 1354.118,428.869C1360.092,431.972 1367.431,434.699 1375.026,437.036C1349.748,414.768 1318.647,386.451 1305.87,368.872C1288.809,372.863 1273.795,374.185 1262.521,371.72C1235.319,372.456 1225.009,368.975 1203.285,364.292C1169.666,357.046 1138.707,329.258 1132.642,313.604C1110.521,322.949 1086.212,327.833 1085.192,327.705C1058.167,330.882 1047.284,330.163 1025.528,325.631C995.695,319.418 958.928,307.761 955.413,304.908C955.413,304.908 958.726,279.24 984.085,261.968C992.07,256.529 1022.774,248.808 1030.286,238.229C1053.259,232.337 1092.291,248.535 1117.335,251.942C1125.201,253.013 1176.299,250.952 1214.453,236.114C1268.053,215.271 1277.174,209.747 1316.432,184.68C1327.799,198.867 1282.134,234.327 1228.948,269.166C1255.267,288.789 1277.124,293.604 1301.343,299.154C1309.081,300.927 1360.158,303.467 1399.492,292.119C1454.748,276.178 1464.328,271.496 1505.681,250.059C1515.727,265.21 1467.059,296.423 1410.956,326.34C1402.709,330.738 1394.254,335.021 1385.732,339.094C1411.073,359.29 1504.792,405.299 1640.334,364.744C1644.807,382.485 1548.339,438.756 1494.309,435.477C1543.998,465.855 1576.017,479.623 1616.376,486.484C1673.073,496.122 1689.666,486.877 1736.224,485.526C1738.694,503.536 1677.506,532.128 1613.978,534.712C1626.485,565.065 1640.633,567.997 1658.565,585.195C1664.295,590.69 1693.382,607.518 1720.549,611.572C1775.086,619.71 1788.007,626.4 1834.499,629.239C1835.339,647.399 1776.209,654.079 1712.705,650.942L1710.003,650.811C1728.987,685.623 1790.705,759.57 1918.31,785.608C1913.871,803.358 1802.264,807.382 1756.192,778.967C1785.636,829.216 1807.353,856.477 1839.684,881.59C1885.102,916.868 1904.094,916.558 1945.768,937.362C1939.436,954.403 1872,950.697 1814.786,922.963C1811.471,955.625 1822.556,964.892 1830.236,988.522C1832.69,996.072 1850.377,1024.645 1872.406,1041.052C1916.63,1073.988 1924.858,1085.988 1964.494,1110.454C1956.656,1126.857 1901.384,1104.811 1846.895,1072.046L1844.575,1070.654C1844.862,1110.305 1864.326,1204.636 1964.494,1287.868C1952.196,1301.415 1851.927,1252.237 1824.743,1205.429C1826.956,1263.626 1833.219,1297.913 1849.851,1335.32C1873.216,1387.87 1890.101,1396.569 1917.004,1434.592C1903.373,1446.62 1845.687,1411.497 1808.362,1360.024C1790.011,1387.245 1795.402,1400.65 1791.009,1425.105C1789.605,1432.919 1791.696,1466.458 1803.361,1491.325C1826.779,1541.246 1828.363,1555.71 1851.739,1595.998C1837.082,1606.752 1798.781,1561.21 1766.234,1506.591L1764.846,1504.268C1746.368,1539.351 1718.96,1631.688 1767.927,1752.367C1750.688,1758.498 1685.545,1667.785 1683.698,1613.687C1658.156,1666.027 1647.479,1699.205 1644.466,1740.032C1640.235,1797.386 1651.008,1813.03 1656.757,1859.252C1639.061,1863.414 1604.81,1805.205 1596.228,1742.206C1567.194,1757.529 1565.614,1771.89 1550.189,1791.369C1545.26,1797.593 1531.259,1828.141 1529.793,1855.57C1526.85,1910.632 1521.413,1924.128 1522.984,1970.68C1504.985,1973.235 1492.742,1915.001 1489.858,1851.486L1489.732,1848.783C1456.872,1870.975 1389.095,1939.411 1375.244,2068.907C1357.153,2066.167 1342.591,1955.441 1366.52,1906.888C1319.282,1940.952 1294.197,1965.151 1272.255,1999.712C1241.431,2048.263 1243.536,2067.141 1226.767,2110.596C1209.204,2105.904 1206.514,2038.42 1228.712,1978.84C1195.884,1978.629 1187.706,1990.54 1164.909,2000.422C1157.625,2003.579 1130.853,2023.889 1116.603,2047.372C1087.998,2094.512 1076.83,2103.839 1056.223,2145.611C1039.153,2139.36 1055.872,2082.25 1083.335,2024.906L1084.501,2022.465C1045.055,2026.501 952.988,2054.801 879.605,2162.393C864.955,2151.431 904.428,2046.96 948.455,2015.471C890.728,2023.179 857.187,2032.657 821.521,2052.753C771.417,2080.984 764.354,2098.616 729.046,2128.995C715.783,2116.563 745.292,2055.813 793.003,2013.786C764.168,1998.092 751.334,2004.727 726.573,2002.667C718.661,2002.009 685.471,2007.262 661.818,2021.228C614.336,2049.263 600.086,2052.208 562.191,2079.29C550.098,2065.716 591.813,2023.279 643.108,1985.711L645.289,1984.11C608.616,1969.033 514.101,1950.482 398.595,2010.645C390.861,1994.063 475.005,1920.632 528.685,1913.676C474.165,1893.2 440.125,1885.708 399.196,1886.571C341.699,1887.784 327.144,1899.988 281.673,1910.084C275.856,1892.861 330.564,1853.257 392.469,1838.755C374.468,1811.301 360.022,1811.086 339.171,1797.572C332.509,1793.255 300.774,1782.206 273.329,1783.341C218.236,1785.619 204.286,1781.483 158.091,1787.451C153.845,1769.774 210.659,1752.078 273.618,1743.198L276.296,1742.818C251.095,1712.204 176.555,1651.204 46.33,1649.665C47.346,1631.396 156.198,1606.425 206.797,1625.654C168.417,1581.85 141.955,1559.167 105.473,1540.593C54.223,1514.499 35.629,1518.38 -9.217,1505.797C-6.208,1487.869 60.719,1478.808 122.132,1495.27C119.237,1462.569 106.606,1455.555 94.612,1433.795C90.78,1426.842 68.028,1402.111 43.303,1390.147C-6.332,1366.129 -16.673,1355.893 -60.207,1339.33C-55.599,1321.744 2.836,1332.987 62.521,1354.902L65.062,1355.832C57.312,1316.945 20.431,1227.968 -93.62,1165.091C-84.094,1149.469 23.643,1178.883 59.156,1219.735C46.022,1162.996 33.414,1130.502 10.034,1096.897C-22.81,1049.688 -41.031,1044.325 -74.614,1012.048C-63.492,997.668 -0.223,1021.299 46.128,1064.82C59.024,1034.63 51.205,1022.481 50.914,997.636C50.821,989.698 42.451,957.153 26.311,934.927C-6.09,890.31 -10.369,876.403 -40.914,841.239C-28.545,827.917 17.647,865.43 59.899,912.942L61.699,914.962C73.239,877.027 82.766,781.181 11.948,671.884C27.724,662.616 108.785,739.436 120.787,792.218C136.015,736.005 140.253,701.41 135.522,660.746C128.876,603.621 115.349,590.286 100.998,545.974C117.594,538.554 162.195,589.27 182.488,649.526C208.116,629.009 206.964,614.607 218.444,592.572C222.112,585.531 230.11,552.893 226.384,525.679C218.904,471.048 221.702,456.769 211.392,411.346C228.587,405.447 251.578,460.333 266.373,522.169L267.005,524.799C295.098,496.816 348.773,416.84 337.988,287.052C356.271,286.336 391.426,392.338 377.07,444.529C422.632,437.199 447.996,441.147 476.032,432.23C531.526,414.58 578.616,441.786 613.209,450.239C568.882,458.625 527.408,459.173 493.543,469.509C444.336,484.528 410.586,508.053 402.855,513.547ZM1691.436,1020.546C1693.084,1019.174 1693.973,1018.363 1693.973,1018.363C1697.265,1055.141 1691.685,1085.674 1676.221,1109.393C1676.221,1109.393 1686.18,1145.414 1690.95,1155.171C1693.712,1160.819 1704.842,1167.931 1704.842,1167.931L1705.119,1163.821C1705.688,1155.44 1699.785,1128.665 1683.239,1106.498C1695.528,1111.431 1704.384,1116.815 1712.63,1133.173C1720.083,1147.959 1718.189,1165.764 1717.226,1177.253C1716.355,1187.637 1714.535,1195.57 1712.474,1203.979C1717.634,1190.489 1723.442,1179.179 1726.739,1167.025L1726.951,1167.267C1727.504,1158.218 1727.063,1146.441 1723.534,1133.849C1713.308,1119.2 1708.027,1089.51 1705.318,1061.461C1702.392,1053.926 1699.973,1045.614 1699.33,1037.676C1698.088,1022.337 1701.739,999.369 1682.532,969.091C1674.638,956.648 1675.761,958.969 1666.594,949.48C1661.428,944.132 1656.779,944.253 1649.626,944.784C1661.345,959.914 1672.682,966.991 1681.008,981.715C1687.03,992.366 1691.088,1006.57 1691.436,1020.546ZM1743.488,1143.937C1743.21,1145.082 1742.925,1146.221 1742.635,1147.353C1730.974,1192.743 1751.032,1247.166 1751.993,1247.862C1751.993,1247.862 1730.048,1268.153 1719.336,1287.137C1715.278,1301.873 1711.857,1317.329 1709.746,1331.86C1702.32,1382.999 1703.183,1427.023 1703.183,1427.023L1703.094,1427.14C1699.671,1436.433 1681.464,1469.68 1658.07,1500.469C1656.353,1506.517 1654.899,1512.866 1653.687,1518.947C1670.483,1495.61 1700.7,1452.839 1722.56,1429.32C1716.924,1415.348 1714.51,1402.59 1716.681,1389.773C1714.654,1362.636 1717.641,1352.172 1721.287,1330.251C1726.929,1296.325 1753.216,1264.082 1768.564,1257.28C1758.179,1235.628 1752.146,1211.578 1752.226,1210.554C1748.37,1187.329 1748.001,1176.035 1750.234,1159.199L1743.488,1143.937ZM1267.834,441.737C1299.361,459.185 1321.112,480.434 1332.105,505.986C1332.105,505.986 1367.616,517.636 1378.381,519.066C1384.614,519.893 1396.699,514.562 1396.699,514.562L1393.43,512.056C1386.765,506.942 1361.201,497.034 1333.58,498.539C1344.492,491.036 1353.878,486.643 1372.066,488.833C1388.505,490.812 1402.284,502.247 1411.317,509.411C1419.483,515.886 1425.081,521.793 1430.943,528.165C1422.566,516.4 1416.363,505.301 1408.068,495.826L1408.386,495.784C1401.157,490.313 1391.106,484.16 1378.666,480.126C1353.666,480.693 1309.491,456.878 1280.633,439.424C1268.264,431.944 1262.166,430.266 1258.549,427.015C1246.775,421.012 1231.351,415.314 1208.793,415.895C1194.062,416.275 1196.63,416.504 1183.78,419.494C1176.538,421.179 1174.253,425.229 1171.034,431.639C1190.035,429.358 1201.931,423.267 1218.84,423.688C1234.76,424.084 1254.136,430.428 1267.834,441.737ZM1641.131,1521.104C1640.345,1521.982 1639.556,1522.851 1638.765,1523.712C1607.045,1558.209 1599.014,1615.652 1599.532,1616.719C1599.532,1616.719 1570.605,1624.237 1552.196,1635.908C1541.657,1646.979 1531.34,1658.985 1522.615,1670.796C1491.911,1712.36 1471.875,1751.57 1471.875,1751.57L1471.741,1751.631C1464.334,1758.205 1432.58,1778.907 1397.417,1794.992C1393.046,1799.512 1388.765,1804.421 1384.825,1809.208C1410.653,1796.573 1457.491,1773.151 1487.869,1762.748C1489.501,1747.772 1493.401,1735.386 1501.369,1725.115C1512.402,1700.24 1519.978,1692.428 1533.548,1674.829C1554.547,1647.594 1592.948,1631.593 1609.689,1632.849C1610.764,1608.859 1616.808,1584.812 1617.363,1583.947C1624.935,1561.655 1629.946,1551.527 1639.867,1537.743L1641.131,1521.104ZM117.343,980.606C125.51,993.265 130.284,1005.341 130.566,1018.338C137.667,1044.607 136.704,1055.446 137.252,1077.662C138.1,1112.043 118.356,1148.66 104.564,1158.231C118.841,1177.54 129.295,1200.023 129.41,1201.044C137.571,1223.127 140.06,1234.149 141.038,1251.104L150.538,1264.823C150.595,1263.646 150.66,1262.474 150.733,1261.307C153.636,1214.533 123.687,1164.862 122.613,1164.359C122.613,1164.359 140.343,1140.298 147.288,1119.637C148.498,1104.4 148.948,1088.577 148.283,1073.908C145.946,1022.286 136.807,979.212 136.807,979.212L136.872,979.081C138.483,969.309 150.103,933.228 167.28,898.584C167.827,892.32 168.059,885.811 168.104,879.611C156.004,905.694 134.383,953.39 117.343,980.606ZM1655.526,763.156C1655.822,764.296 1656.11,765.434 1656.388,766.569C1667.553,812.084 1710.942,850.575 1712.117,850.735C1712.117,850.735 1702.362,878.986 1701.888,900.778C1705.273,915.683 1709.559,930.922 1714.564,944.727C1732.176,993.308 1753.734,1031.702 1753.734,1031.702L1753.711,1031.847C1755.085,1041.655 1754.743,1079.56 1748.669,1117.748C1750.013,1123.89 1751.731,1130.173 1753.536,1136.104C1757.314,1107.601 1763.742,1055.629 1771.898,1024.572C1760.331,1014.921 1752.176,1004.816 1748.034,992.494C1733.428,969.534 1731.118,958.9 1723.975,937.856C1712.922,905.29 1720.858,864.453 1731.173,851.207C1711.791,837.029 1695.112,818.682 1694.698,817.742C1680.328,799.094 1674.668,789.314 1668.682,773.42L1655.526,763.156ZM1140.194,432.306C1141.92,432.682 1146.735,425.098 1148.172,422.583C1154.743,411.086 1156.594,412.545 1173.928,406.619C1189.596,401.262 1213.99,402.473 1225.238,405.002C1248.932,410.33 1258.23,415.76 1292.067,423.851C1269.408,414.357 1246.936,403.013 1237.626,398.206L1162.029,395.688C1143.161,398.804 1118.789,398.516 1097.062,397.157C1097.942,403.48 1120.943,428.112 1140.194,432.306ZM750.747,1862.287C751.375,1864.337 751.779,1865.471 751.779,1865.471C716.592,1854.276 690.596,1837.317 674.707,1813.88C674.707,1813.88 637.638,1809.126 626.796,1809.75C620.519,1810.111 609.654,1817.623 609.654,1817.623L613.337,1819.468C620.846,1823.235 647.819,1828.152 674.661,1821.471C665.358,1830.895 656.967,1836.978 638.692,1838.252C622.174,1839.404 606.489,1830.769 596.267,1825.435C587.029,1820.614 580.418,1815.866 573.461,1810.713C583.904,1820.689 592.086,1830.421 602.017,1838.165L601.713,1838.266C609.843,1842.278 620.873,1846.427 633.85,1848.046C651.315,1844.284 680.735,1850.902 707.648,1859.257C715.728,1859.474 724.329,1860.46 731.897,1862.938C746.522,1867.727 766.288,1879.981 801.64,1873.985C816.168,1871.52 813.594,1871.658 825.89,1866.877C832.82,1864.182 834.508,1859.849 836.786,1853.047C818.299,1857.999 807.387,1865.715 790.589,1867.695C778.437,1869.128 763.769,1867.374 750.747,1862.287ZM616.827,1862.542C615.879,1861.842 614.938,1861.14 614.007,1860.433C576.664,1832.118 518.719,1829.558 517.706,1830.174C517.706,1830.174 507.485,1802.088 494.125,1784.865C482.107,1775.421 469.179,1766.286 456.596,1758.717C412.314,1732.083 371.385,1715.845 371.385,1715.845L371.311,1715.718C364.065,1708.966 340.453,1679.312 321.114,1645.828C316.201,1641.905 310.909,1638.107 305.771,1634.637C320.791,1659.154 348.54,1703.567 361.769,1732.825C376.833,1733.033 389.532,1735.744 400.511,1742.704C426.318,1751.335 434.811,1758.138 453.614,1769.982C482.714,1788.311 502.276,1825.026 502.609,1841.811C526.593,1840.613 551.104,1844.355 552.018,1844.825C574.926,1850.255 585.483,1854.284 600.143,1862.858L616.827,1862.542ZM426.795,1685.264C426.38,1687.368 426.2,1688.558 426.2,1688.558C400.475,1662.069 385.575,1634.841 382.642,1606.677C382.642,1606.677 352.216,1584.976 342.366,1580.404C336.662,1577.757 323.538,1579.245 323.538,1579.245L325.912,1582.611C330.751,1589.479 352.201,1606.554 379.016,1613.347C366.364,1617.258 356.095,1618.655 339.386,1611.145C324.283,1604.357 314.538,1589.336 308.049,1579.806C302.184,1571.193 298.6,1563.886 294.903,1556.057C299.394,1569.783 302.008,1582.226 307.103,1593.743L306.786,1593.688C312.057,1601.064 319.819,1609.933 330.492,1617.489C347.662,1622.425 370.466,1642.156 390.24,1662.233C397.259,1666.242 404.373,1671.174 409.873,1676.933C420.501,1688.064 432.134,1708.201 466.124,1719.617C480.093,1724.308 477.76,1723.213 490.856,1724.808C498.237,1725.706 501.772,1722.685 506.993,1717.766C488.36,1713.397 475.097,1715.043 459.356,1708.853C447.969,1704.375 435.869,1695.899 426.795,1685.264ZM306.631,782.102C307.43,780.527 301.307,773.954 299.236,771.928C289.768,762.67 291.647,761.247 290.286,742.978C289.056,726.466 296.382,703.166 301.667,692.92C312.801,671.337 320.401,663.71 336.766,633.009C321.863,652.539 305.216,671.422 298.216,679.218L276.707,751.734C274.961,770.778 268.534,794.289 261.738,814.97C268.078,815.714 297.716,799.672 306.631,782.102ZM1717.483,1037.28C1714.639,1015.405 1713.113,994.147 1712.521,984.741L1675.845,918.589C1663.479,904.002 1651.205,882.944 1641.209,863.605C1636.236,867.609 1626.92,899.996 1633.211,918.667C1633.775,920.341 1642.756,920.576 1645.652,920.517C1658.891,920.248 1658.59,922.586 1672.58,934.413C1685.224,945.104 1696.717,966.655 1700.326,977.605C1702.633,984.607 1704.251,990.476 1705.678,996.183L1705.791,996.053C1705.795,996.266 1705.802,996.489 1705.812,996.723C1708.277,1006.647 1710.208,1016.172 1714.239,1030.432C1715.223,1032.753 1716.303,1035.05 1717.483,1037.28ZM1551.358,678.991C1552.162,677.003 1552.563,675.868 1552.563,675.868C1572.838,706.728 1582.344,736.275 1579.92,764.487C1579.92,764.487 1605.714,791.53 1614.528,797.876C1619.63,801.55 1632.8,802.56 1632.8,802.56L1631.102,798.806C1627.644,791.151 1609.793,770.341 1584.738,758.62C1597.9,757.161 1608.248,757.723 1623.244,768.246C1636.798,777.756 1643.54,794.344 1648.118,804.925C1652.256,814.489 1654.4,822.341 1656.556,830.726C1654.731,816.399 1654.507,803.687 1651.672,791.417L1651.972,791.53C1648.185,783.293 1642.232,773.122 1633.174,763.69C1617.24,755.609 1598.56,731.937 1582.922,708.494C1576.783,703.235 1570.725,697.052 1566.408,690.359C1558.067,677.427 1550.434,655.459 1519.202,637.846C1506.367,630.608 1508.453,632.123 1495.891,628.09C1488.811,625.817 1484.771,628.119 1478.717,631.966C1496.193,639.767 1509.529,640.648 1523.823,649.692C1534.162,656.234 1544.45,666.837 1551.358,678.991ZM1668.596,1414.814C1676.423,1394.19 1685.122,1374.733 1689.043,1366.163L1687.968,1290.532C1683.96,1271.833 1683.09,1247.475 1683.415,1225.708C1677.142,1226.887 1653.63,1251.032 1650.355,1270.46C1650.061,1272.202 1657.865,1276.652 1660.445,1277.968C1672.242,1283.985 1670.872,1285.903 1677.615,1302.937C1683.709,1318.332 1683.658,1342.756 1681.666,1354.112C1680.391,1361.374 1679.045,1367.311 1677.606,1373.015L1677.768,1372.954C1677.671,1373.143 1677.571,1373.344 1677.469,1373.555C1674.953,1383.465 1672.156,1392.773 1668.972,1407.245C1668.744,1409.756 1668.61,1412.291 1668.596,1414.814ZM196.165,1364.674C203.078,1385.621 208.58,1406.212 210.933,1415.338L259.411,1473.398C274.303,1485.396 290.323,1503.765 303.783,1520.875C307.912,1516.007 310.962,1482.445 301.267,1465.293C300.398,1463.755 291.534,1465.215 288.701,1465.819C275.749,1468.577 275.605,1466.224 259.638,1457.243C245.206,1449.125 229.86,1430.124 224.254,1420.05C220.669,1413.607 217.974,1408.148 215.498,1402.812L215.412,1402.961C215.368,1402.753 215.319,1402.535 215.265,1402.307C210.976,1393.025 207.285,1384.034 200.64,1370.788C199.236,1368.694 197.743,1366.641 196.165,1364.674ZM725.239,1879.83C746.51,1885.671 766.703,1892.49 775.605,1895.583L850.796,1887.359C869.031,1881.6 893.198,1878.43 914.898,1876.695C913.131,1870.561 886.871,1849.438 867.22,1848.016C865.458,1847.888 861.766,1856.078 860.7,1858.771C855.826,1871.084 853.787,1869.902 837.467,1878.225C822.717,1885.748 798.398,1888.008 786.904,1887.099C779.554,1886.517 773.516,1885.738 767.702,1884.846L767.778,1885.001C767.581,1884.922 767.372,1884.842 767.152,1884.761C757.048,1883.193 747.517,1881.289 732.809,1879.489C730.288,1879.498 727.751,1879.605 725.239,1879.83ZM1105.704,1892.786C1127.212,1887.885 1148.231,1884.356 1157.538,1882.876L1219.924,1840.107C1233.276,1826.417 1253.079,1812.207 1271.385,1800.426C1266.929,1795.854 1233.806,1789.643 1215.814,1797.672C1214.201,1798.392 1214.816,1807.355 1215.148,1810.232C1216.669,1823.387 1214.313,1823.308 1203.862,1838.354C1194.415,1851.953 1174.048,1865.433 1163.489,1870.061C1156.736,1873.021 1151.046,1875.187 1145.5,1877.146L1145.64,1877.247C1145.429,1877.271 1145.207,1877.299 1144.975,1877.331C1135.329,1880.723 1126.029,1883.547 1112.215,1888.909C1109.997,1890.108 1107.812,1891.401 1105.704,1892.786ZM1119.899,1865.273C1121.421,1866.783 1122.313,1867.592 1122.313,1867.592C1086.011,1874.348 1055.087,1871.681 1030.011,1858.53C1030.011,1858.53 995.093,1871.852 985.832,1877.524C980.47,1880.808 974.443,1892.561 974.443,1892.561L978.561,1892.447C986.958,1892.221 1013.054,1883.812 1033.557,1865.243C1029.809,1877.944 1025.287,1887.269 1009.781,1897.026C995.767,1905.844 977.863,1905.643 966.335,1905.77C955.914,1905.885 947.845,1904.824 939.279,1903.568C953.196,1907.428 965.005,1912.14 977.416,1914.274L977.195,1914.507C986.256,1914.202 997.939,1912.648 1010.141,1907.945C1023.757,1896.379 1052.814,1888.313 1080.481,1882.963C1087.705,1879.337 1095.751,1876.143 1103.593,1874.752C1118.745,1872.064 1141.955,1873.526 1170.281,1851.541C1181.922,1842.506 1179.717,1843.843 1188.296,1833.82C1193.132,1828.172 1192.572,1823.555 1191.367,1816.484C1177.412,1829.581 1171.439,1841.537 1157.57,1851.218C1147.536,1858.222 1133.779,1863.605 1119.899,1865.273ZM191.891,965.231C192.439,973.296 192.271,981.951 190.52,989.72C187.135,1004.732 176.807,1025.569 186.12,1060.194C189.947,1074.424 189.567,1071.875 195.49,1083.663C198.828,1090.308 203.301,1091.578 210.288,1093.202C203.61,1075.267 194.896,1065.134 191.336,1048.598C188.76,1036.637 189.119,1021.868 192.951,1008.424C190.97,1009.243 189.879,1009.752 189.879,1009.752C197.695,973.663 212.119,946.18 233.948,928.145C233.948,928.145 235.174,890.793 233.528,880.059C232.574,873.844 224.069,863.738 224.069,863.738L222.58,867.579C219.54,875.411 217.197,902.728 226.387,928.818C216.125,920.448 209.276,912.67 206.279,894.597C203.569,878.262 210.682,861.831 215.025,851.151C218.951,841.498 223.052,834.467 227.524,827.054C218.58,838.394 209.666,847.459 202.896,858.079L202.767,857.785C199.542,866.259 196.455,877.632 196.071,890.703C201.467,907.734 197.663,937.649 191.891,965.231ZM284.743,605.746C286.445,622.14 285.173,636.043 278.868,648.446C272.717,674.954 266.748,684.052 256.736,703.892C241.241,734.595 206.541,757.542 189.864,759.461C193.325,783.225 191.918,807.979 191.537,808.933C188.298,832.253 185.285,843.143 178.137,858.549L180.03,875.128C180.636,874.118 181.247,873.115 181.862,872.121C206.518,832.267 203.586,774.34 202.876,773.389C202.876,773.389 229.87,760.558 245.752,745.629C254.016,732.771 261.888,719.037 268.232,705.794C290.559,659.191 302.852,616.91 302.852,616.91C302.852,616.91 333.303,595.236 352.271,579.151C365.316,568.089 379.108,541.705 386.451,526.305C360.378,547.419 314.392,586.237 284.743,605.746ZM396.025,1688.676C412.014,1703.873 426.59,1719.422 432.975,1726.354L503.131,1754.626C521.924,1758.165 544.722,1766.788 564.668,1775.51C566.008,1769.268 552.841,1738.246 536.193,1727.709C534.701,1726.764 527.578,1732.238 525.366,1734.108C515.253,1742.658 514.015,1740.653 495.699,1740.279C479.144,1739.942 456.642,1730.445 446.942,1724.214C440.738,1720.229 435.785,1716.69 431.082,1713.157L431.076,1713.329C430.939,1713.167 430.792,1712.998 430.637,1712.822C422.472,1706.667 414.971,1700.486 402.858,1691.951C400.631,1690.769 398.346,1689.665 396.025,1688.676ZM1582.22,681.435C1569.38,663.498 1557.992,645.482 1553.027,637.472L1489.451,596.494C1471.661,589.478 1450.895,576.716 1432.949,564.394C1430.457,570.272 1437.546,603.218 1451.911,616.702C1453.199,617.911 1461.225,613.876 1463.75,612.456C1475.292,605.964 1476.131,608.167 1494.049,611.983C1510.243,615.432 1530.554,628.997 1538.908,636.943C1544.25,642.025 1548.448,646.434 1552.401,650.79L1552.44,650.621C1552.544,650.807 1552.656,651.001 1552.775,651.202C1559.635,658.785 1565.837,666.268 1576.126,676.931C1578.09,678.512 1580.127,680.027 1582.22,681.435ZM224.897,1376.203C223.538,1377.861 222.816,1378.825 222.816,1378.825C212.657,1343.325 212.387,1312.287 223.107,1286.08C223.107,1286.08 206.542,1252.579 200.02,1243.896C196.243,1238.868 183.973,1233.98 183.973,1233.98L184.475,1238.068C185.495,1246.407 196.335,1271.59 216.76,1290.245C203.761,1287.715 194.051,1284.095 182.871,1269.582C172.766,1256.465 171.273,1238.622 170.056,1227.157C168.955,1216.795 169.248,1208.661 169.688,1200.015C167.162,1214.234 163.588,1226.436 162.638,1238.994L162.385,1238.796C163.546,1247.788 166.198,1259.27 172.034,1270.973C184.836,1283.434 195.615,1311.597 203.558,1338.635C207.851,1345.483 211.792,1353.191 213.918,1360.866C218.027,1375.696 218.767,1398.941 243.333,1425.06C253.429,1435.794 251.889,1433.726 262.678,1441.318C268.759,1445.597 273.302,1444.604 280.227,1442.735C265.869,1430.082 253.402,1425.267 242.452,1412.375C234.531,1403.049 227.87,1389.863 224.897,1376.203ZM142.145,1274.408C143.802,1303.113 147.278,1355.366 145.116,1387.402C158.295,1394.702 168.207,1403.091 174.595,1414.412C193.264,1434.211 197.536,1444.219 208.514,1463.541C225.503,1493.443 225.399,1535.044 217.764,1549.995C239.469,1560.269 259.305,1575.146 259.888,1575.992C277.514,1591.6 284.914,1600.139 293.786,1614.621L308.64,1622.224C308.134,1621.16 307.638,1620.096 307.15,1619.034C287.613,1576.436 237.751,1546.806 236.567,1546.87C236.567,1546.87 240.827,1517.287 237.188,1495.796C231.057,1481.795 223.978,1467.636 216.463,1455.021C190.016,1410.626 161.613,1376.979 161.613,1376.979L161.608,1376.833C158.412,1367.459 151.608,1330.168 150.381,1291.52C147.905,1285.741 145.035,1279.894 142.145,1274.408ZM1653.545,1387.76C1655.645,1387.329 1656.812,1387.034 1656.812,1387.034C1642.339,1421.005 1622.997,1445.28 1598.162,1458.881C1598.162,1458.881 1589.923,1495.334 1589.519,1506.186C1589.284,1512.469 1595.735,1523.996 1595.735,1523.996L1597.92,1520.504C1602.381,1513.385 1609.826,1486.998 1605.715,1459.644C1614.217,1469.797 1619.478,1478.726 1619.018,1497.04C1618.603,1513.592 1608.522,1528.391 1602.245,1538.061C1596.572,1546.802 1591.221,1552.935 1585.432,1559.373C1596.352,1549.921 1606.814,1542.696 1615.462,1533.541L1615.534,1533.854C1620.297,1526.14 1625.471,1515.552 1628.31,1502.786C1626.217,1485.044 1635.588,1456.381 1646.451,1430.379C1647.432,1422.356 1649.227,1413.887 1652.41,1406.587C1658.561,1392.481 1672.629,1373.962 1670.004,1338.202C1668.925,1323.506 1668.818,1326.082 1665.222,1313.389C1663.195,1306.235 1659.04,1304.144 1652.485,1301.233C1655.666,1320.105 1662.315,1331.699 1662.697,1348.609C1662.974,1360.841 1659.84,1375.278 1653.545,1387.76ZM173.074,984.689C169.271,1006.418 164.393,1027.165 162.156,1036.32L177.456,1110.395C184.913,1128.004 190.355,1151.763 194.135,1173.201C200.075,1170.862 218.618,1142.721 218.176,1123.024C218.136,1121.258 209.634,1118.357 206.852,1117.551C194.133,1113.863 195.117,1111.721 185.287,1096.262C176.403,1082.29 171.852,1058.293 171.671,1046.766C171.554,1039.393 171.759,1033.309 172.097,1027.436L171.95,1027.527C172.01,1027.323 172.07,1027.107 172.13,1026.881C172.734,1016.673 173.729,1007.006 174.13,992.193C173.882,989.684 173.536,987.169 173.074,984.689ZM1372.738,1805.177C1371.631,1805.58 1370.525,1805.974 1369.422,1806.358C1325.167,1821.778 1290.953,1868.614 1290.905,1869.799C1290.905,1869.799 1261.858,1862.759 1240.119,1864.349C1225.6,1869.129 1210.835,1874.837 1197.566,1881.125C1150.869,1903.254 1114.686,1928.347 1114.686,1928.347L1114.539,1928.338C1104.905,1930.633 1067.138,1933.879 1028.547,1931.444C1022.56,1933.363 1016.467,1935.667 1010.733,1938.025C1039.466,1939.091 1091.813,1940.573 1123.502,1945.755C1132.016,1933.326 1141.304,1924.252 1153.179,1918.963C1174.655,1902.251 1185.022,1898.946 1205.296,1889.845C1236.671,1875.76 1278.075,1879.798 1292.237,1888.813C1304.518,1868.177 1321.205,1849.838 1322.102,1849.337C1339.308,1833.267 1348.508,1826.707 1363.764,1819.245L1372.738,1805.177ZM1381.392,452.34C1388.069,458.588 1394.546,465.093 1400.487,471.698C1431.829,506.539 1488.255,519.967 1489.366,519.553C1489.366,519.553 1494.114,549.061 1503.991,568.492C1514.016,580.03 1524.992,591.437 1535.924,601.239C1574.398,635.737 1611.536,659.393 1611.536,659.393L1611.585,659.532C1617.429,667.527 1635.034,701.097 1647.721,737.625C1651.807,742.403 1656.289,747.129 1660.682,751.505C1650.547,724.598 1631.66,675.754 1624.178,644.528C1609.423,641.486 1597.462,636.432 1587.99,627.529C1564.27,614.192 1557.21,605.911 1540.974,590.738C1515.847,567.256 1503.55,527.514 1506.384,510.967C1482.603,507.627 1459.236,499.335 1458.427,498.702C1433.605,487.551 1424.636,481.346 1408.295,466.286C1405.168,463.405 1400.313,459.146 1394.355,453.946L1381.392,452.34ZM1447.159,1724.47C1463.8,1709.99 1480.658,1696.95 1488.163,1691.249L1522.944,1624.082C1528.245,1605.708 1538.985,1583.828 1549.555,1564.797C1543.468,1562.872 1511.34,1573.046 1499.275,1588.622C1498.193,1590.018 1502.969,1597.627 1504.622,1600.006C1512.176,1610.882 1510.063,1611.926 1507.959,1630.124C1506.057,1646.572 1494.474,1668.075 1487.354,1677.143C1482.8,1682.942 1478.808,1687.538 1474.846,1691.886L1475.017,1691.908C1474.842,1692.029 1474.66,1692.159 1474.47,1692.297C1467.571,1699.843 1460.708,1706.725 1451.066,1717.977C1449.678,1720.082 1448.362,1722.253 1447.159,1724.47ZM1001.985,1928.763C1000.819,1928.595 999.658,1928.419 998.503,1928.237C952.214,1920.922 899.933,1946.038 899.33,1947.06C899.33,1947.06 877.054,1927.134 857.143,1918.265C842.089,1915.619 826.379,1913.675 811.713,1912.949C760.101,1910.393 716.356,1915.416 716.356,1915.416L716.231,1915.339C706.655,1912.811 671.835,1897.83 638.972,1877.453C632.788,1876.316 626.33,1875.469 620.162,1874.838C644.983,1889.351 690.421,1915.387 715.902,1934.924C729.278,1927.992 741.751,1924.382 754.716,1925.33C781.539,1920.746 792.239,1922.73 814.407,1924.286C848.713,1926.694 883.299,1949.812 891.522,1964.449C912.095,1952.062 935.466,1943.781 936.494,1943.764C959.25,1937.728 970.458,1936.292 987.429,1936.923L1001.985,1928.763ZM1446.673,1693.515C1448.728,1694.127 1449.896,1694.419 1449.896,1694.419C1421.091,1717.523 1392.576,1729.781 1364.262,1730.036C1364.262,1730.036 1339.78,1758.273 1334.296,1767.647C1331.121,1773.074 1331.361,1786.28 1331.361,1786.28L1334.937,1784.235C1342.232,1780.068 1361.26,1760.329 1370.558,1734.277C1373.255,1747.242 1373.674,1757.597 1364.617,1773.521C1356.432,1787.914 1340.556,1796.195 1330.455,1801.753C1321.326,1806.777 1313.712,1809.654 1305.569,1812.594C1319.658,1809.422 1332.292,1807.996 1344.24,1804.013L1344.155,1804.323C1351.997,1799.773 1361.56,1792.886 1370.092,1782.976C1376.63,1766.349 1398.429,1745.513 1420.287,1727.728C1424.942,1721.119 1430.524,1714.503 1436.779,1709.573C1448.864,1700.046 1470.012,1690.37 1484.591,1657.611C1490.583,1644.149 1489.272,1646.368 1492.098,1633.482C1493.691,1626.219 1491.017,1622.414 1486.615,1616.751C1480.503,1634.887 1480.887,1648.247 1473.235,1663.331C1467.701,1674.244 1458.118,1685.488 1446.673,1693.515Z"/>
        </g>
    </g>
</svg>
