<?xml version="1.0" encoding="UTF-8" standalone="no"?>
<!DOCTYPE svg PUBLIC "-//W3C//DTD SVG 1.1//EN" "http://www.w3.org/Graphics/SVG/1.1/DTD/svg11.dtd">
<svg width="100%" height="100%" viewBox="0 0 2200 2200" version="1.1" xmlns="http://www.w3.org/2000/svg" xmlns:xlink="http://www.w3.org/1999/xlink" xml:space="preserve" xmlns:serif="http://www.serif.com/" style="fill-rule:evenodd;clip-rule:evenodd;stroke-linecap:round;stroke-linejoin:round;stroke-miterlimit:1.5;">
    <g transform="matrix(1,0,0,1,-2309.197007,0)">
        <g id="Type-002" serif:id="Type 002" transform="matrix(0.88,0,0,0.88,2529.197007,220)">
            <rect x="-250" y="-250" width="2500" height="2500" style="fill:white;"/>
            <g transform="matrix(1.136364,0,0,1.136364,-2874.087508,-212.083327)">
                <path d="M2909.901,304.458C2883.329,370.172 2865.567,622.077 2865.649,652.049C2865.731,682.056 2886,812.606 2920.877,939.752L2821.104,865.568C2837.173,973.816 2830.778,985.226 2867.77,1054.62C2920.76,1028.039 2975.02,961.917 2987.777,916.656C2980.851,932.047 2921.936,762.98 2913.782,676.203C2909.369,629.232 2927.758,462.019 2927.758,462.019C2927.758,462.019 2987.92,568.02 3042.081,637.582C3050.149,647.944 3058.521,657.542 3067.093,666.628C3107.775,709.75 3152.949,741.35 3191.353,788.445C3236.501,843.811 3239.511,917.217 3239.511,917.217L3093.017,843.129L3174.894,989.622L3072.096,922.471C3017.144,998.368 2948.791,1065.129 2862.228,1119.473L2807.643,1189.554L2805.639,1193.875L2933.243,1159.672C2933.243,1159.672 2882.375,1307.626 2783.449,1398.133C2895.004,1408.657 3011.821,1540.207 3011.821,1540.207L3010.768,1428.652L3106.972,1508.658C3100.22,1493.012 3096.584,1479.052 3093.767,1465.791C3090.033,1448.204 3082.083,1434.837 3074.527,1418.918C3060.989,1390.397 2986.919,1343.175 2965.559,1327.004C3013.315,1334.801 3070.314,1365.203 3104.659,1397.905L3001.407,1249.614C3001.407,1249.614 3093.839,1322.753 3117.887,1349.772C3131.469,1365.031 3149.594,1420.922 3162.249,1457.704C3175.788,1497.053 3199.12,1585.865 3199.12,1585.865L3257.114,1318.725C3257.114,1318.725 3113.958,1317.684 3102.692,1276.126C3090.021,1229.384 3041.066,1189.147 2962.566,1137.819C3026.18,1131.456 3082.714,1127.899 3135.102,1150.723L3121.727,1046.381C3166.581,1115.399 3199.485,1181.522 3240.919,1201.838C3276.922,1219.491 3293.644,1249.992 3308.209,1269.65L3301.445,1304.472L3351.579,1379.694L3347.755,1499.757C3340.721,1451.579 3328.374,1384.075 3293.696,1340.109L3266.777,1513.126C3289.698,1545.006 3292.148,1556.413 3356.169,1572.597C3329.941,1591.439 3317.35,1604.522 3258.12,1581.202C3258.12,1581.202 3242.679,1699.926 3246.127,1706.15C3271.245,1751.484 3303.484,1783.891 3345.475,1784.561C3349.426,1784.624 3395.276,1786.669 3395.276,1759.998C3395.276,1733.328 3312.037,1707.647 3312.037,1690.215C3312.037,1677.617 3334.18,1604.373 3346.769,1603.882C3361.989,1603.288 3409.197,1605.247 3409.197,1605.247C3409.197,1605.247 3408.009,1759.847 3409.197,1759.773L3409.197,1993.092C3378.546,1930.415 3358.85,1864.216 3271.967,1819.613C3218.229,1780.84 3194.082,1716.421 3176.342,1646.45L3084.783,1572.699L3126.765,1765.73C2988.291,1581.896 2850.458,1429.463 2658.926,1432.982C2725.403,1385.238 2780.521,1319.321 2824.547,1235.656L2716.619,1263.913L2821.457,1062.866C2776.197,971.062 2791.198,913.165 2768.999,782.138C2799.127,792.72 2822.801,807.238 2853.097,827.128C2853.097,827.128 2808.532,688.294 2808.532,642.669C2808.532,597.043 2889.387,140.175 2889.387,140.175C2915.877,196.924 2973,329.596 3008.546,388.847C3070.716,492.475 3110.723,577.242 3212.343,657.802C3250.134,687.761 3279.927,699.307 3324.89,725.291C3350.742,733.315 3374.91,742.707 3409.197,743.877L3409.197,794.556C3403.837,794.511 3330.232,794.055 3330.232,794.055L3306.831,1007.985C3306.831,1007.985 3284.958,884.975 3270.633,838.415C3259.246,801.405 3250.964,739.933 3220.882,728.629C3176.87,712.091 3096.805,634.944 3059.342,595.194C3035.175,569.553 3007.525,506.12 2969.33,437.994C2943.022,391.07 2909.653,308.09 2909.901,304.458L2909.996,304.224C2909.94,304.27 2909.909,304.349 2909.901,304.458ZM3090.972,1184.992C3090.972,1184.992 3112.202,1229.068 3140.759,1250.621C3169.317,1272.174 3201.97,1273.647 3217.488,1267.756C3233.006,1261.865 3253.697,1253.639 3253.697,1253.639C3212.783,1222.881 3163.516,1197.059 3090.972,1184.992ZM3211.46,1047.302C3219.457,1048.413 3248.416,1060.665 3276.008,1091.547C3286.303,1103.07 3334.21,1154.725 3341.446,1163.666C3363.979,1191.51 3409.197,1262.087 3409.197,1262.087L3409.197,1440.977C3409.197,1440.977 3393.817,1343.45 3365.26,1257.238C3336.702,1171.026 3211.46,1047.302 3211.46,1047.302Z" style="stroke:black;stroke-opacity:0.96;stroke-width:1px;"/>
            </g>
            <g transform="matrix(-1.136364,0,0,1.136364,4874.087508,-212.083327)">
                <path d="M2909.901,304.458C2883.329,370.172 2865.567,622.077 2865.649,652.049C2865.731,682.056 2886,812.606 2920.877,939.752L2821.104,865.568C2837.173,973.816 2830.778,985.226 2867.77,1054.62C2920.76,1028.039 2975.02,961.917 2987.777,916.656C2980.851,932.047 2921.936,762.98 2913.782,676.203C2909.369,629.232 2927.758,462.019 2927.758,462.019C2927.758,462.019 2987.92,568.02 3042.081,637.582C3050.149,647.944 3058.521,657.542 3067.093,666.628C3107.775,709.75 3152.949,741.35 3191.353,788.445C3236.501,843.811 3239.511,917.217 3239.511,917.217L3093.017,843.129L3174.894,989.622L3072.096,922.471C3017.144,998.368 2948.791,1065.129 2862.228,1119.473L2807.643,1189.554L2805.639,1193.875L2933.243,1159.672C2933.243,1159.672 2882.375,1307.626 2783.449,1398.133C2895.004,1408.657 3011.821,1540.207 3011.821,1540.207L3010.768,1428.652L3106.972,1508.658C3100.22,1493.012 3096.584,1479.052 3093.767,1465.791C3090.033,1448.204 3082.083,1434.837 3074.527,1418.918C3060.989,1390.397 2986.919,1343.175 2965.559,1327.004C3013.315,1334.801 3070.314,1365.203 3104.659,1397.905L3001.407,1249.614C3001.407,1249.614 3093.839,1322.753 3117.887,1349.772C3131.469,1365.031 3149.594,1420.922 3162.249,1457.704C3175.788,1497.053 3199.12,1585.865 3199.12,1585.865L3257.114,1318.725C3257.114,1318.725 3113.958,1317.684 3102.692,1276.126C3090.021,1229.384 3041.066,1189.147 2962.566,1137.819C3026.18,1131.456 3082.714,1127.899 3135.102,1150.723L3121.727,1046.381C3166.581,1115.399 3199.485,1181.522 3240.919,1201.838C3276.922,1219.491 3293.644,1249.992 3308.209,1269.65L3301.445,1304.472L3351.579,1379.694L3347.755,1499.757C3340.721,1451.579 3328.374,1384.075 3293.696,1340.109L3266.777,1513.126C3289.698,1545.006 3292.148,1556.413 3356.169,1572.597C3329.941,1591.439 3317.35,1604.522 3258.12,1581.202C3258.12,1581.202 3242.679,1699.926 3246.127,1706.15C3271.245,1751.484 3303.484,1783.891 3345.475,1784.561C3349.426,1784.624 3395.276,1786.669 3395.276,1759.998C3395.276,1733.328 3312.037,1707.647 3312.037,1690.215C3312.037,1677.617 3334.18,1604.373 3346.769,1603.882C3361.989,1603.288 3409.197,1605.247 3409.197,1605.247C3409.197,1605.247 3408.009,1759.847 3409.197,1759.773L3409.197,1993.092C3378.546,1930.415 3358.85,1864.216 3271.967,1819.613C3218.229,1780.84 3194.082,1716.421 3176.342,1646.45L3084.783,1572.699L3126.765,1765.73C2988.291,1581.896 2850.458,1429.463 2658.926,1432.982C2725.403,1385.238 2780.521,1319.321 2824.547,1235.656L2716.619,1263.913L2821.457,1062.866C2776.197,971.062 2791.198,913.165 2768.999,782.138C2799.127,792.72 2822.801,807.238 2853.097,827.128C2853.097,827.128 2808.532,688.294 2808.532,642.669C2808.532,597.043 2889.387,140.175 2889.387,140.175C2915.877,196.924 2973,329.596 3008.546,388.847C3070.716,492.475 3110.723,577.242 3212.343,657.802C3250.134,687.761 3279.927,699.307 3324.89,725.291C3350.742,733.315 3374.91,742.707 3409.197,743.877L3409.197,794.556C3403.837,794.511 3330.232,794.055 3330.232,794.055L3306.831,1007.985C3306.831,1007.985 3284.958,884.975 3270.633,838.415C3259.246,801.405 3250.964,739.933 3220.882,728.629C3176.87,712.091 3096.805,634.944 3059.342,595.194C3035.175,569.553 3007.525,506.12 2969.33,437.994C2943.022,391.07 2909.653,308.09 2909.901,304.458L2909.996,304.224C2909.94,304.27 2909.909,304.349 2909.901,304.458ZM3090.972,1184.992C3090.972,1184.992 3112.202,1229.068 3140.759,1250.621C3169.317,1272.174 3201.97,1273.647 3217.488,1267.756C3233.006,1261.865 3253.697,1253.639 3253.697,1253.639C3212.783,1222.881 3163.516,1197.059 3090.972,1184.992ZM3211.46,1047.302C3219.457,1048.413 3248.416,1060.665 3276.008,1091.547C3286.303,1103.07 3334.21,1154.725 3341.446,1163.666C3363.979,1191.51 3409.197,1262.087 3409.197,1262.087L3409.197,1440.977C3409.197,1440.977 3393.817,1343.45 3365.26,1257.238C3336.702,1171.026 3211.46,1047.302 3211.46,1047.302Z" style="stroke:black;stroke-opacity:0.96;stroke-width:1px;"/>
            </g>
            <g id="Layer1">
            </g>
        </g>
    </g>
</svg>
